# xmcd
#
# Track frame offsets:
#	150
#	20808
#	39907
#	57277
#	77015
#	96964
#	111595
#	125506
#	141468
#
# Disc length: 2338 seconds
#
# Revision: 0
# Processed by: cddbd v1.5.2PL0 Copyright (c) Steve Scherf et al.
# Submitted via: EZCDAudioConverter 2.1.5.1
#
DISCID=7f092009
DTITLE=Melissa Horn - Jag Går Nu
DYEAR=2015
DGENRE=Swedish Blues/Pop
TTITLE0=Jag Har Gjort Det Igen
TTITLE1=I Mörkret Långt Ifrån Varann
TTITLE2=Du Går Nu
TTITLE3=De Två Årstiderna
TTITLE4=Där Går Mitt Liv
TTITLE5=Livet Ropade
TTITLE6=Efter Jul
TTITLE7=En Helt Vanlig Dag
TTITLE8=Jag Gör Aldrig Om Det Här
EXTD=
EXTT0=
EXTT1=
EXTT2=
EXTT3=
EXTT4=
EXTT5=
EXTT6=
EXTT7=
EXTT8=
PLAYORDER=
